<svg aria-roledescription="er" role="graphics-document document" viewBox="0 0 177.51937866210938 444" style="max-width: 177.519px; background-color: white;" xmlns:xlink="http://www.w3.org/1999/xlink" xmlns="http://www.w3.org/2000/svg" width="100%" id="my-svg"><style>#my-svg{font-family:"trebuchet ms",verdana,arial,sans-serif;font-size:16px;fill:#000000;}#my-svg .error-icon{fill:#552222;}#my-svg .error-text{fill:#552222;stroke:#552222;}#my-svg .edge-thickness-normal{stroke-width:2px;}#my-svg .edge-thickness-thick{stroke-width:3.5px;}#my-svg .edge-pattern-solid{stroke-dasharray:0;}#my-svg .edge-pattern-dashed{stroke-dasharray:3;}#my-svg .edge-pattern-dotted{stroke-dasharray:2;}#my-svg .marker{fill:#000000;stroke:#000000;}#my-svg .marker.cross{stroke:#000000;}#my-svg svg{font-family:"trebuchet ms",verdana,arial,sans-serif;font-size:16px;}#my-svg .entityBox{fill:#cde498;stroke:#13540c;}#my-svg .attributeBoxOdd{fill:#ffffff;stroke:#13540c;}#my-svg .attributeBoxEven{fill:#f2f2f2;stroke:#13540c;}#my-svg .relationshipLabelBox{fill:hsl(78.1578947368, 58.4615384615%, 84.5098039216%);opacity:0.7;background-color:hsl(78.1578947368, 58.4615384615%, 84.5098039216%);}#my-svg .relationshipLabelBox rect{opacity:0.5;}#my-svg .relationshipLine{stroke:#000000;}#my-svg .entityTitleText{text-anchor:middle;font-size:18px;fill:#000000;}#my-svg #MD_PARENT_START{fill:#f5f5f5!important;stroke:#000000!important;stroke-width:1;}#my-svg #MD_PARENT_END{fill:#f5f5f5!important;stroke:#000000!important;stroke-width:1;}#my-svg :root{--mermaid-font-family:"trebuchet ms",verdana,arial,sans-serif;}</style><g/><defs><marker orient="auto" markerHeight="240" markerWidth="190" refY="7" refX="0" id="MD_PARENT_START"><path d="M 18,7 L9,13 L1,7 L9,1 Z"/></marker></defs><defs><marker orient="auto" markerHeight="28" markerWidth="20" refY="7" refX="19" id="MD_PARENT_END"><path d="M 18,7 L9,13 L1,7 L9,1 Z"/></marker></defs><defs><marker orient="auto" markerHeight="18" markerWidth="18" refY="9" refX="0" id="ONLY_ONE_START"><path d="M9,0 L9,18 M15,0 L15,18" fill="none" stroke="gray"/></marker></defs><defs><marker orient="auto" markerHeight="18" markerWidth="18" refY="9" refX="18" id="ONLY_ONE_END"><path d="M3,0 L3,18 M9,0 L9,18" fill="none" stroke="gray"/></marker></defs><defs><marker orient="auto" markerHeight="18" markerWidth="30" refY="9" refX="0" id="ZERO_OR_ONE_START"><circle r="6" cy="9" cx="21" fill="white" stroke="gray"/><path d="M9,0 L9,18" fill="none" stroke="gray"/></marker></defs><defs><marker orient="auto" markerHeight="18" markerWidth="30" refY="9" refX="30" id="ZERO_OR_ONE_END"><circle r="6" cy="9" cx="9" fill="white" stroke="gray"/><path d="M21,0 L21,18" fill="none" stroke="gray"/></marker></defs><defs><marker orient="auto" markerHeight="36" markerWidth="45" refY="18" refX="18" id="ONE_OR_MORE_START"><path d="M0,18 Q 18,0 36,18 Q 18,36 0,18 M42,9 L42,27" fill="none" stroke="gray"/></marker></defs><defs><marker orient="auto" markerHeight="36" markerWidth="45" refY="18" refX="27" id="ONE_OR_MORE_END"><path d="M3,9 L3,27 M9,18 Q27,0 45,18 Q27,36 9,18" fill="none" stroke="gray"/></marker></defs><defs><marker orient="auto" markerHeight="36" markerWidth="57" refY="18" refX="18" id="ZERO_OR_MORE_START"><circle r="6" cy="18" cx="48" fill="white" stroke="gray"/><path d="M0,18 Q18,0 36,18 Q18,36 0,18" fill="none" stroke="gray"/></marker></defs><defs><marker orient="auto" markerHeight="36" markerWidth="57" refY="18" refX="39" id="ZERO_OR_MORE_END"><circle r="6" cy="18" cx="9" fill="white" stroke="gray"/><path d="M21,18 Q39,0 57,18 Q39,36 21,18" fill="none" stroke="gray"/></marker></defs><path style="stroke: gray; fill: none;" marker-start="url(#ZERO_OR_MORE_START)" marker-end="url(#ZERO_OR_MORE_END)" d="M55.76649205214312,214L52.93202493196171,222.33333333333334C50.09755781178031,230.66666666666666,44.428623571417496,247.33333333333334,45.56241041949006,264C46.69619726756262,280.6666666666667,54.63270520407056,297.3333333333333,58.60095917232453,305.6666666666667L62.5692131405785,314" class="er relationshipLine"/><path style="stroke: gray; fill: none;" marker-start="url(#ZERO_OR_MORE_START)" marker-end="url(#ZERO_OR_MORE_END)" d="M114.95016552153088,314L118.91841948978485,305.6666666666667C122.88667345803883,297.3333333333333,130.82318139454676,280.6666666666667,131.9569682426193,264C133.09075509069189,247.33333333333334,127.42182085032907,230.66666666666666,124.58735373014765,222.33333333333334L121.75288660996625,214" class="er relationshipLine"/><g transform="translate(20,20 )" id="entity-Student-8f7f7a56-d9f8-57b5-bb12-4f40575e65f5"><rect height="194" width="137.51937866210938" y="0" x="0" class="er entityBox"/><text style="dominant-baseline: middle; text-anchor: middle; font-size: 12px;" transform="translate(68.75968933105469,12)" y="0" x="0" id="text-entity-Student-8f7f7a56-d9f8-57b5-bb12-4f40575e65f5" class="er entityLabel">Student</text><rect height="23" width="54.113128662109375" y="24" x="0" class="er attributeBoxOdd"/><text style="dominant-baseline: middle; font-size: 10.2px;" transform="translate(5,35.5)" y="0" x="0" id="text-entity-Student-8f7f7a56-d9f8-57b5-bb12-4f40575e65f5-attr-1-type" class="er entityLabel">String</text><rect height="23" width="60.40625" y="24" x="54.113128662109375" class="er attributeBoxOdd"/><text style="dominant-baseline: middle; font-size: 10.2px;" transform="translate(59.113128662109375,35.5)" y="0" x="0" id="text-entity-Student-8f7f7a56-d9f8-57b5-bb12-4f40575e65f5-attr-1-name" class="er entityLabel">id</text><rect height="23" width="23" y="24" x="114.51937866210938" class="er attributeBoxOdd"/><text style="dominant-baseline: middle; font-size: 10.2px;" transform="translate(119.51937866210938,35.5)" y="0" x="0" id="text-entity-Student-8f7f7a56-d9f8-57b5-bb12-4f40575e65f5-attr-1-comment" class="er entityLabel">🗝️</text><rect height="21" width="54.113128662109375" y="47" x="0" class="er attributeBoxEven"/><text style="dominant-baseline: middle; font-size: 10.2px;" transform="translate(5,57.5)" y="0" x="0" id="text-entity-Student-8f7f7a56-d9f8-57b5-bb12-4f40575e65f5-attr-2-type" class="er entityLabel">String</text><rect height="21" width="60.40625" y="47" x="54.113128662109375" class="er attributeBoxEven"/><text style="dominant-baseline: middle; font-size: 10.2px;" transform="translate(59.113128662109375,57.5)" y="0" x="0" id="text-entity-Student-8f7f7a56-d9f8-57b5-bb12-4f40575e65f5-attr-2-name" class="er entityLabel">firstName</text><rect height="21" width="23" y="47" x="114.51937866210938" class="er attributeBoxEven"/><text style="dominant-baseline: middle; font-size: 10.2px;" transform="translate(119.51937866210938,57.5)" y="0" x="0" id="text-entity-Student-8f7f7a56-d9f8-57b5-bb12-4f40575e65f5-attr-2-comment" class="er entityLabel"/><rect height="21" width="54.113128662109375" y="68" x="0" class="er attributeBoxOdd"/><text style="dominant-baseline: middle; font-size: 10.2px;" transform="translate(5,78.5)" y="0" x="0" id="text-entity-Student-8f7f7a56-d9f8-57b5-bb12-4f40575e65f5-attr-3-type" class="er entityLabel">String</text><rect height="21" width="60.40625" y="68" x="54.113128662109375" class="er attributeBoxOdd"/><text style="dominant-baseline: middle; font-size: 10.2px;" transform="translate(59.113128662109375,78.5)" y="0" x="0" id="text-entity-Student-8f7f7a56-d9f8-57b5-bb12-4f40575e65f5-attr-3-name" class="er entityLabel">lastName</text><rect height="21" width="23" y="68" x="114.51937866210938" class="er attributeBoxOdd"/><text style="dominant-baseline: middle; font-size: 10.2px;" transform="translate(119.51937866210938,78.5)" y="0" x="0" id="text-entity-Student-8f7f7a56-d9f8-57b5-bb12-4f40575e65f5-attr-3-comment" class="er entityLabel"/><rect height="21" width="54.113128662109375" y="89" x="0" class="er attributeBoxEven"/><text style="dominant-baseline: middle; font-size: 10.2px;" transform="translate(5,99.5)" y="0" x="0" id="text-entity-Student-8f7f7a56-d9f8-57b5-bb12-4f40575e65f5-attr-4-type" class="er entityLabel">String</text><rect height="21" width="60.40625" y="89" x="54.113128662109375" class="er attributeBoxEven"/><text style="dominant-baseline: middle; font-size: 10.2px;" transform="translate(59.113128662109375,99.5)" y="0" x="0" id="text-entity-Student-8f7f7a56-d9f8-57b5-bb12-4f40575e65f5-attr-4-name" class="er entityLabel">email</text><rect height="21" width="23" y="89" x="114.51937866210938" class="er attributeBoxEven"/><text style="dominant-baseline: middle; font-size: 10.2px;" transform="translate(119.51937866210938,99.5)" y="0" x="0" id="text-entity-Student-8f7f7a56-d9f8-57b5-bb12-4f40575e65f5-attr-4-comment" class="er entityLabel"/><rect height="21" width="54.113128662109375" y="110" x="0" class="er attributeBoxOdd"/><text style="dominant-baseline: middle; font-size: 10.2px;" transform="translate(5,120.5)" y="0" x="0" id="text-entity-Student-8f7f7a56-d9f8-57b5-bb12-4f40575e65f5-attr-5-type" class="er entityLabel">String</text><rect height="21" width="60.40625" y="110" x="54.113128662109375" class="er attributeBoxOdd"/><text style="dominant-baseline: middle; font-size: 10.2px;" transform="translate(59.113128662109375,120.5)" y="0" x="0" id="text-entity-Student-8f7f7a56-d9f8-57b5-bb12-4f40575e65f5-attr-5-name" class="er entityLabel">password</text><rect height="21" width="23" y="110" x="114.51937866210938" class="er attributeBoxOdd"/><text style="dominant-baseline: middle; font-size: 10.2px;" transform="translate(119.51937866210938,120.5)" y="0" x="0" id="text-entity-Student-8f7f7a56-d9f8-57b5-bb12-4f40575e65f5-attr-5-comment" class="er entityLabel"/><rect height="21" width="54.113128662109375" y="131" x="0" class="er attributeBoxEven"/><text style="dominant-baseline: middle; font-size: 10.2px;" transform="translate(5,141.5)" y="0" x="0" id="text-entity-Student-8f7f7a56-d9f8-57b5-bb12-4f40575e65f5-attr-6-type" class="er entityLabel">Int</text><rect height="21" width="60.40625" y="131" x="54.113128662109375" class="er attributeBoxEven"/><text style="dominant-baseline: middle; font-size: 10.2px;" transform="translate(59.113128662109375,141.5)" y="0" x="0" id="text-entity-Student-8f7f7a56-d9f8-57b5-bb12-4f40575e65f5-attr-6-name" class="er entityLabel">registration</text><rect height="21" width="23" y="131" x="114.51937866210938" class="er attributeBoxEven"/><text style="dominant-baseline: middle; font-size: 10.2px;" transform="translate(119.51937866210938,141.5)" y="0" x="0" id="text-entity-Student-8f7f7a56-d9f8-57b5-bb12-4f40575e65f5-attr-6-comment" class="er entityLabel"/><rect height="21" width="54.113128662109375" y="152" x="0" class="er attributeBoxOdd"/><text style="dominant-baseline: middle; font-size: 10.2px;" transform="translate(5,162.5)" y="0" x="0" id="text-entity-Student-8f7f7a56-d9f8-57b5-bb12-4f40575e65f5-attr-7-type" class="er entityLabel">DateTime</text><rect height="21" width="60.40625" y="152" x="54.113128662109375" class="er attributeBoxOdd"/><text style="dominant-baseline: middle; font-size: 10.2px;" transform="translate(59.113128662109375,162.5)" y="0" x="0" id="text-entity-Student-8f7f7a56-d9f8-57b5-bb12-4f40575e65f5-attr-7-name" class="er entityLabel">createdAt</text><rect height="21" width="23" y="152" x="114.51937866210938" class="er attributeBoxOdd"/><text style="dominant-baseline: middle; font-size: 10.2px;" transform="translate(119.51937866210938,162.5)" y="0" x="0" id="text-entity-Student-8f7f7a56-d9f8-57b5-bb12-4f40575e65f5-attr-7-comment" class="er entityLabel"/><rect height="21" width="54.113128662109375" y="173" x="0" class="er attributeBoxEven"/><text style="dominant-baseline: middle; font-size: 10.2px;" transform="translate(5,183.5)" y="0" x="0" id="text-entity-Student-8f7f7a56-d9f8-57b5-bb12-4f40575e65f5-attr-8-type" class="er entityLabel">DateTime</text><rect height="21" width="60.40625" y="173" x="54.113128662109375" class="er attributeBoxEven"/><text style="dominant-baseline: middle; font-size: 10.2px;" transform="translate(59.113128662109375,183.5)" y="0" x="0" id="text-entity-Student-8f7f7a56-d9f8-57b5-bb12-4f40575e65f5-attr-8-name" class="er entityLabel">updatedAt</text><rect height="21" width="23" y="173" x="114.51937866210938" class="er attributeBoxEven"/><text style="dominant-baseline: middle; font-size: 10.2px;" transform="translate(119.51937866210938,183.5)" y="0" x="0" id="text-entity-Student-8f7f7a56-d9f8-57b5-bb12-4f40575e65f5-attr-8-comment" class="er entityLabel"/></g><g transform="translate(21.893020629882812,314 )" id="entity-Courses-0dc6265f-743f-5167-b7c0-649d844c805a"><rect height="110" width="133.73333740234375" y="0" x="0" class="er entityBox"/><text style="dominant-baseline: middle; text-anchor: middle; font-size: 12px;" transform="translate(66.86666870117188,12)" y="0" x="0" id="text-entity-Courses-0dc6265f-743f-5167-b7c0-649d844c805a" class="er entityLabel">Courses</text><rect height="23" width="54.113128662109375" y="24" x="0" class="er attributeBoxOdd"/><text style="dominant-baseline: middle; font-size: 10.2px;" transform="translate(5,35.5)" y="0" x="0" id="text-entity-Courses-0dc6265f-743f-5167-b7c0-649d844c805a-attr-1-type" class="er entityLabel">String</text><rect height="23" width="56.620208740234375" y="24" x="54.113128662109375" class="er attributeBoxOdd"/><text style="dominant-baseline: middle; font-size: 10.2px;" transform="translate(59.113128662109375,35.5)" y="0" x="0" id="text-entity-Courses-0dc6265f-743f-5167-b7c0-649d844c805a-attr-1-name" class="er entityLabel">id</text><rect height="23" width="23" y="24" x="110.73333740234375" class="er attributeBoxOdd"/><text style="dominant-baseline: middle; font-size: 10.2px;" transform="translate(115.73333740234375,35.5)" y="0" x="0" id="text-entity-Courses-0dc6265f-743f-5167-b7c0-649d844c805a-attr-1-comment" class="er entityLabel">🗝️</text><rect height="21" width="54.113128662109375" y="47" x="0" class="er attributeBoxEven"/><text style="dominant-baseline: middle; font-size: 10.2px;" transform="translate(5,57.5)" y="0" x="0" id="text-entity-Courses-0dc6265f-743f-5167-b7c0-649d844c805a-attr-2-type" class="er entityLabel">String</text><rect height="21" width="56.620208740234375" y="47" x="54.113128662109375" class="er attributeBoxEven"/><text style="dominant-baseline: middle; font-size: 10.2px;" transform="translate(59.113128662109375,57.5)" y="0" x="0" id="text-entity-Courses-0dc6265f-743f-5167-b7c0-649d844c805a-attr-2-name" class="er entityLabel">name</text><rect height="21" width="23" y="47" x="110.73333740234375" class="er attributeBoxEven"/><text style="dominant-baseline: middle; font-size: 10.2px;" transform="translate(115.73333740234375,57.5)" y="0" x="0" id="text-entity-Courses-0dc6265f-743f-5167-b7c0-649d844c805a-attr-2-comment" class="er entityLabel"/><rect height="21" width="54.113128662109375" y="68" x="0" class="er attributeBoxOdd"/><text style="dominant-baseline: middle; font-size: 10.2px;" transform="translate(5,78.5)" y="0" x="0" id="text-entity-Courses-0dc6265f-743f-5167-b7c0-649d844c805a-attr-3-type" class="er entityLabel">DateTime</text><rect height="21" width="56.620208740234375" y="68" x="54.113128662109375" class="er attributeBoxOdd"/><text style="dominant-baseline: middle; font-size: 10.2px;" transform="translate(59.113128662109375,78.5)" y="0" x="0" id="text-entity-Courses-0dc6265f-743f-5167-b7c0-649d844c805a-attr-3-name" class="er entityLabel">createdAt</text><rect height="21" width="23" y="68" x="110.73333740234375" class="er attributeBoxOdd"/><text style="dominant-baseline: middle; font-size: 10.2px;" transform="translate(115.73333740234375,78.5)" y="0" x="0" id="text-entity-Courses-0dc6265f-743f-5167-b7c0-649d844c805a-attr-3-comment" class="er entityLabel"/><rect height="21" width="54.113128662109375" y="89" x="0" class="er attributeBoxEven"/><text style="dominant-baseline: middle; font-size: 10.2px;" transform="translate(5,99.5)" y="0" x="0" id="text-entity-Courses-0dc6265f-743f-5167-b7c0-649d844c805a-attr-4-type" class="er entityLabel">DateTime</text><rect height="21" width="56.620208740234375" y="89" x="54.113128662109375" class="er attributeBoxEven"/><text style="dominant-baseline: middle; font-size: 10.2px;" transform="translate(59.113128662109375,99.5)" y="0" x="0" id="text-entity-Courses-0dc6265f-743f-5167-b7c0-649d844c805a-attr-4-name" class="er entityLabel">updatedAt</text><rect height="21" width="23" y="89" x="110.73333740234375" class="er attributeBoxEven"/><text style="dominant-baseline: middle; font-size: 10.2px;" transform="translate(115.73333740234375,99.5)" y="0" x="0" id="text-entity-Courses-0dc6265f-743f-5167-b7c0-649d844c805a-attr-4-comment" class="er entityLabel"/></g><rect height="14" width="42.03125" y="257.8722839355469" x="24.612503051757812" class="er relationshipLabelBox"/><text style="text-anchor: middle; dominant-baseline: middle; font-size: 12px;" y="264.8722839355469" x="45.62812805175781" id="rel1" class="er relationshipLabel">courses</text><rect height="14" width="45.375" y="257.8722839355469" x="109.2037353515625" class="er relationshipLabelBox"/><text style="text-anchor: middle; dominant-baseline: middle; font-size: 12px;" y="264.8722839355469" x="131.8912353515625" id="rel2" class="er relationshipLabel">students</text></svg>